<?xml version="1.0" encoding="utf-8"?>
<!-- Generator: Adobe Illustrator 26.0.1, SVG Export Plug-In . SVG Version: 6.00 Build 0)  -->
<svg version="1.1" id="Layer_1" xmlns="http://www.w3.org/2000/svg" xmlns:xlink="http://www.w3.org/1999/xlink" x="0px" y="0px"
	 viewBox="0 0 300 100" style="enable-background:new 0 0 300 100;" xml:space="preserve">
<style type="text/css">
	.st0{fill:#FFFFFF;}
</style>
<g>
	<g>
		<g>
			<path class="st0" d="M193.72,98.34c15.88,0,28.81-12.92,28.81-28.81c0-0.22-0.01-0.44-0.01-0.66h-16
				c0.01,0.22,0.03,0.44,0.03,0.66c0,7.08-5.74,12.82-12.82,12.82c-7.08,0-12.82-5.74-12.82-12.82c0-0.22,0.02-0.44,0.03-0.66h-16
				c0,0.22-0.02,0.44-0.02,0.66C164.92,85.42,177.84,98.34,193.72,98.34z"/>
			<path class="st0" d="M144.76,69.54c0,15.88,12.92,28.81,28.81,28.81h1.69c-9.48-6.1-15.77-16.73-15.77-28.81
				c0-0.22,0.01-0.44,0.02-0.66h-14.73C144.77,69.1,144.76,69.31,144.76,69.54z"/>
		</g>
		<g>
			<path class="st0" d="M139.18,2.42L139.18,2.42c-3.69,0-6.69,3-6.69,6.69v40.32c0,3.69,3,6.69,6.69,6.69l0,0
				c3.69,0,6.69-3,6.69-6.69V9.11C145.87,5.42,142.88,2.42,139.18,2.42z"/>
			<path class="st0" d="M187.66,43.99h-9.82c0,0,13.07-30.32,14.15-32.88c1.74-4.12-1.29-8.69-5.76-8.69h-19.68
				c-3.35,0-6.06,2.71-6.06,6.06s2.71,6.06,6.06,6.06h9.43l-14.17,32.83c-1.78,4.13,1.24,8.74,5.74,8.74h20.11
				c3.35,0,6.06-2.71,6.06-6.06C193.72,46.7,191,43.99,187.66,43.99z"/>
			<path class="st0" d="M215.84,2.42c-3.69,0-6.69,3-6.69,6.69v40.32c0,3.69,2.99,6.69,6.69,6.69c3.69,0,6.69-3,6.69-6.69V9.11
				C222.53,5.42,219.53,2.42,215.84,2.42z"/>
			<path class="st0" d="M98.52,2.42H84.56c-3.68,0-6.67,2.98-6.67,6.67v40.36c0,3.68,2.98,6.67,6.67,6.67h13.96
				c10.23,0,18.52-8.29,18.52-18.52V20.93C117.04,10.71,108.75,2.42,98.52,2.42z M103.54,37.19c0,4.09-3.32,7.41-7.41,7.41h-4.77
				V13.93h4.77c4.09,0,7.41,3.32,7.41,7.41V37.19z"/>
		</g>
	</g>
	<g>
		<path class="st0" d="M80.03,76.15h3.4l-0.21,1.46h-5.25v-8.73h2.06V76.15z"/>
		<path class="st0" d="M91.75,74.88h-4.14c0.07,0.57,0.23,0.96,0.48,1.19c0.25,0.23,0.6,0.34,1.04,0.34c0.27,0,0.53-0.05,0.78-0.14
			c0.25-0.1,0.52-0.25,0.82-0.45l0.82,1.11c-0.78,0.63-1.65,0.94-2.61,0.94c-1.08,0-1.91-0.32-2.49-0.97
			c-0.58-0.64-0.87-1.51-0.87-2.59c0-0.69,0.12-1.3,0.37-1.85c0.24-0.55,0.6-0.98,1.07-1.3s1.03-0.48,1.69-0.48
			c0.97,0,1.72,0.3,2.27,0.91c0.55,0.61,0.82,1.46,0.82,2.54C91.79,74.44,91.77,74.68,91.75,74.88z M89.83,73.6
			c-0.02-1.03-0.38-1.55-1.08-1.55c-0.34,0-0.61,0.13-0.8,0.38c-0.19,0.25-0.3,0.67-0.35,1.26h2.23V73.6z"/>
		<path class="st0" d="M100.14,76.35c0.07,0.12,0.19,0.21,0.35,0.27l-0.42,1.26c-0.41-0.03-0.75-0.12-1.01-0.27
			c-0.26-0.15-0.46-0.38-0.6-0.7c-0.44,0.65-1.11,0.97-2.01,0.97c-0.66,0-1.19-0.19-1.59-0.58c-0.39-0.39-0.59-0.9-0.59-1.52
			c0-0.74,0.27-1.3,0.81-1.69c0.54-0.39,1.31-0.58,2.33-0.58h0.68V73.2c0-0.4-0.08-0.67-0.25-0.82c-0.17-0.15-0.46-0.22-0.88-0.22
			c-0.22,0-0.48,0.03-0.79,0.09c-0.31,0.06-0.63,0.15-0.96,0.26l-0.45-1.32c0.42-0.16,0.85-0.28,1.29-0.37
			c0.44-0.08,0.85-0.13,1.23-0.13c0.96,0,1.66,0.2,2.1,0.61c0.44,0.4,0.67,1.01,0.67,1.82v2.66
			C100.03,76.04,100.07,76.23,100.14,76.35z M98.08,75.83v-1.3h-0.49c-0.45,0-0.79,0.09-1.01,0.26c-0.22,0.17-0.33,0.45-0.33,0.81
			c0,0.29,0.07,0.52,0.21,0.68c0.14,0.16,0.33,0.24,0.57,0.24C97.48,76.53,97.83,76.3,98.08,75.83z"/>
		<path class="st0" d="M107.21,70.9c0.42,0.14,0.79,0.33,1.11,0.57l-0.73,1.09c-0.55-0.34-1.1-0.52-1.65-0.52
			c-0.26,0-0.46,0.05-0.6,0.14c-0.14,0.09-0.21,0.23-0.21,0.4c0,0.14,0.03,0.25,0.09,0.33c0.06,0.09,0.19,0.17,0.38,0.26
			c0.19,0.09,0.49,0.2,0.89,0.32c0.7,0.2,1.21,0.47,1.55,0.79c0.34,0.33,0.51,0.78,0.51,1.35c0,0.46-0.13,0.85-0.39,1.19
			c-0.26,0.33-0.62,0.59-1.07,0.77c-0.45,0.18-0.96,0.27-1.51,0.27c-0.56,0-1.08-0.08-1.57-0.25c-0.48-0.17-0.89-0.4-1.23-0.69
			l0.97-1.06c0.56,0.44,1.15,0.65,1.78,0.65c0.3,0,0.54-0.06,0.71-0.17c0.17-0.12,0.26-0.28,0.26-0.5c0-0.17-0.03-0.3-0.1-0.4
			c-0.07-0.1-0.2-0.19-0.39-0.28c-0.19-0.08-0.5-0.19-0.92-0.31c-0.66-0.19-1.16-0.47-1.49-0.81c-0.33-0.35-0.49-0.78-0.49-1.3
			c0-0.39,0.11-0.74,0.33-1.05c0.22-0.31,0.54-0.55,0.96-0.74c0.42-0.18,0.9-0.27,1.44-0.27C106.34,70.7,106.79,70.77,107.21,70.9z"
			/>
		<path class="st0" d="M113.26,67.73c0.22,0.21,0.33,0.48,0.33,0.81c0,0.33-0.11,0.59-0.33,0.81c-0.22,0.21-0.51,0.32-0.85,0.32
			c-0.34,0-0.63-0.11-0.84-0.32c-0.22-0.21-0.33-0.48-0.33-0.81c0-0.33,0.11-0.59,0.33-0.81c0.22-0.21,0.5-0.32,0.84-0.32
			C112.75,67.41,113.04,67.52,113.26,67.73z M113.42,77.61h-1.99v-6.69h1.99V77.61z"/>
		<path class="st0" d="M122.12,71.23c0.33,0.35,0.49,0.85,0.49,1.49v4.89h-1.99v-4.56c0-0.34-0.05-0.57-0.16-0.7
			c-0.11-0.13-0.26-0.2-0.47-0.2c-0.42,0-0.81,0.29-1.16,0.87v4.58h-1.99v-6.69h1.72l0.15,0.81c0.29-0.34,0.59-0.6,0.93-0.77
			c0.33-0.17,0.7-0.26,1.11-0.26C121.34,70.7,121.79,70.88,122.12,71.23z"/>
		<path class="st0" d="M132.11,71.3c-0.44,0.19-1.08,0.28-1.93,0.28c0.44,0.18,0.76,0.41,0.96,0.68c0.2,0.27,0.3,0.62,0.3,1.04
			c0,0.43-0.11,0.81-0.34,1.15c-0.23,0.34-0.55,0.61-0.98,0.8c-0.42,0.19-0.92,0.29-1.49,0.29c-0.27,0-0.52-0.02-0.77-0.08
			c-0.07,0.03-0.12,0.09-0.16,0.16c-0.04,0.07-0.06,0.15-0.06,0.22c0,0.13,0.05,0.22,0.14,0.3c0.1,0.07,0.29,0.11,0.59,0.11h1.01
			c0.51,0,0.96,0.08,1.35,0.25c0.39,0.17,0.68,0.4,0.89,0.69c0.21,0.29,0.31,0.63,0.31,1c0,0.7-0.3,1.24-0.9,1.64
			c-0.6,0.39-1.47,0.59-2.6,0.59c-0.81,0-1.46-0.09-1.93-0.27c-0.47-0.18-0.8-0.43-0.99-0.75c-0.19-0.32-0.28-0.72-0.28-1.21h1.79
			c0,0.21,0.04,0.38,0.12,0.5c0.08,0.12,0.22,0.21,0.43,0.28c0.21,0.06,0.51,0.09,0.91,0.09c0.55,0,0.92-0.07,1.13-0.2
			c0.21-0.14,0.31-0.33,0.31-0.59c0-0.21-0.08-0.38-0.24-0.5c-0.16-0.12-0.4-0.18-0.72-0.18h-0.97c-0.69,0-1.2-0.12-1.54-0.36
			c-0.34-0.24-0.51-0.55-0.51-0.92c0-0.24,0.07-0.47,0.21-0.69c0.14-0.22,0.34-0.41,0.58-0.56c-0.42-0.23-0.72-0.49-0.91-0.8
			c-0.19-0.31-0.28-0.68-0.28-1.12c0-0.75,0.27-1.34,0.81-1.79c0.54-0.44,1.25-0.66,2.13-0.66c0.67,0.02,1.24-0.05,1.71-0.2
			s0.95-0.37,1.44-0.66L132.11,71.3z M127.81,72.35c-0.18,0.2-0.27,0.48-0.27,0.84c0,0.37,0.09,0.66,0.27,0.86
			c0.18,0.2,0.43,0.3,0.74,0.3c0.33,0,0.58-0.1,0.75-0.3c0.17-0.2,0.26-0.5,0.26-0.89c0-0.74-0.34-1.11-1.01-1.11
			C128.24,72.05,128,72.15,127.81,72.35z"/>
	</g>
</g>
</svg>
